PI_motion
version=1
nRows=405
nColumns=3
inDegrees=yes
endheader
time	r_shoulder_elev	r_elbow_flex
0	0	20
0.01	0	19.99669491
0.02	0	19.98701182
0.03	0	19.97152685
0.04	0	19.95108976
0.05	0	19.92676811
0.06	0	19.89979287
0.07	0	19.87149875
0.08	0	19.84326074
0.09	0	19.81642973
0.1	0	19.79226976
0.11	0	19.77190016
0.12	0	19.75624484
0.13	0	19.74599149
0.14	0	19.7415623
0.15	0	19.74309746
0.16	0	19.75044432
0.17	0	19.76316441
0.18	0	19.78056912
0.19	0	19.8017645
0.2	0	19.82569947
0.21	0	19.85121805
0.22	0	19.87711492
0.23	0	19.90219249
0.24	0	19.92531672
0.25	0	19.9454692
0.26	0	19.96179313
0.27	0	19.97363087
0.28	0	19.98055148
0.29	0	19.98236674
0.3	0	19.97913652
0.31	0	19.97115076
0.32	0	19.95889237
0.33	0	19.9430328
0.34	0	19.92440049
0.35	0	19.90393952
0.36	0	19.88266375
0.37	0	19.8616087
0.38	0	19.8417829
0.39	0	19.82412126
0.4	0	19.80944225
0.41	0	19.79841122
0.42	0	19.79151122
0.43	0	19.78902289
0.44	0	19.79101367
0.45	0	19.79733
0.46	0	19.80760731
0.47	0	19.82129818
0.48	0	19.83770672
0.49	0	19.85602552
0.5	0	19.87537574
0.51	0	19.89484944
0.52	0	19.91355303
0.53	0	19.9306516
0.54	0	19.94541211
0.55	0	19.95724135
0.56	0	19.96571657
0.57	0	19.97060725
0.58	0	19.97188715
0.59	0	19.96973704
0.6	0	19.96453015
0.61	0	19.95680301
0.62	0	19.94724764
0.63	0	19.93668344
0.64	0	19.92602099
0.65	0	19.91622242
0.66	0	19.90825975
0.67	0	19.90307329
0.68	0	19.90153192
0.69	0	19.90439581
0.7	0	19.91227703
0.71	0	19.92561641
0.72	0	19.94467567
0.73	0	19.96953721
0.74	0	20.00010902
0.75	0	20.03613637
0.76	0	20.07722016
0.77	0	20.1228413
0.78	0	20.17238978
0.79	0	20.22519742
0.8	0	20.28057242
0.81	0	20.33783454
0.82	0	20.39634902
0.83	0	20.45555787
0.84	0	20.51500706
0.85	0	20.57436833
0.86	0	20.63345478
0.87	0	20.69222938
0.88	0	20.75080627
0.89	0	20.80944479
0.9	0	20.86853665
0.91	0	20.92858707
0.92	0	20.9901908
0.93	0	21.05400434
0.94	0	21.12071579
0.95	0	21.19101374
0.96	0	21.26555679
0.97	0	21.34494489
0.98	0	21.42969403
0.99	0	21.52021507
1	0	21.61679772
1.01	0	21.71960028
1.02	0	21.82864532
1.03	0	21.94382156
1.04	0	22.06489169
1.05	0	22.1915057
1.06	0	22.3232191
1.07	0	22.45951523
1.08	0	22.59983049
1.09	0	22.74358149
1.1	0	22.89019274
1.11	0	23.03912373
1.12	0	23.18989401
1.13	0	23.34210527
1.14	0	23.49545921
1.15	0	23.64977056
1.16	0	23.80497455
1.17	0	23.96112854
1.18	0	24.11840778
1.19	0	24.27709565
1.2	0	24.43756871
1.21	0	24.60027754
1.22	0	24.76572421
1.23	0	24.93443756
1.24	0	25.10694744
1.25	0	25.28375917
1.26	0	25.46532937
1.27	0	25.65204432
1.28	0	25.84420177
1.29	0	26.04199698
1.3	0	26.24551363
1.31	0	26.45471996
1.32	0	26.6694702
1.33	0	26.88951132
1.34	0	27.11449461
1.35	0	27.34399167
1.36	0	27.57751397
1.37	0	27.8145351
1.38	0	28.05451464
1.39	0	28.29692256
1.4	0	28.54126298
1.41	0	28.78709612
1.42	0	29.03405751
1.43	0	29.28187338
1.44	0	29.53037163
1.45	0	29.77948788
1.46	0	30.02926613
1.47	0	30.27985431
1.48	0	30.53149472
1.49	0	30.78451002
1.5	0	31.03928538
1.51	0	31.29624774
1.52	0	31.55584323
1.53	0	31.81851373
1.54	0	32.0846739
1.55	0	32.35468954
1.56	0	32.6288592
1.57	0	32.90742841
1.58	0	33.19059719
1.59	0	33.47846469
1.6	0	33.77101586
1.61	0	34.06812058
1.62	0	34.36953852
1.63	0	34.67492897
1.64	0	34.98386556
1.65	0	35.29585484
1.66	0	35.6103581
1.67	0	35.92681513
1.68	0	36.244669
1.69	0	36.56339058
1.7	0	36.88250156
1.71	0	37.201595
1.72	0	37.52035223
1.73	0	37.83855549
1.74	0	38.15609554
1.75	0	38.4729739
1.76	0	38.78929979
1.77	0	39.10528169
1.78	0	39.42121427
1.79	0	39.73746103
1.8	0	40.05443386
1.81	0	40.3725703
1.82	0	40.69230976
1.83	0	41.01406981
1.84	0	41.33822372
1.85	0	41.6650803
1.86	0	41.99486701
1.87	0	42.32771705
1.88	0	42.6636612
1.89	0	43.00262447
1.9	0	43.34442799
1.91	0	43.6887958
1.92	0	44.03536635
1.93	0	44.38373381
1.94	0	44.73355791
1.95	0	45.08452797
1.96	0	45.43636099
1.97	0	45.78877714
1.98	0	46.14149114
1.99	0	46.49422332
2	0	46.84671038
2.01	0	47.19871521
2.02	0	47.55003539
2.03	0	47.90050996
2.04	0	48.25002411
2.05	0	48.59851164
2.06	0	48.94595503
2.07	0	49.29238314
2.08	0	49.63786673
2.09	0	49.98251203
2.1	0	50.32645258
2.11	0	50.66983994
2.12	0	51.01283358
2.13	0	51.3555905
2.14	0	51.69825517
2.15	0	52.04095004
2.16	0	52.38376739
2.17	0	52.72676258
2.18	0	53.06994924
2.19	0	53.41329645
2.2	0	53.75672816
2.21	0	54.10012467
2.22	0	54.44332627
2.23	0	54.78613869
2.24	0	55.12834019
2.25	0	55.46968978
2.26	0	55.8099364
2.27	0	56.14882832
2.28	0	56.48612259
2.29	0	56.82159387
2.3	0	57.15504236
2.31	0	57.48630037
2.32	0	57.81523731
2.33	0	58.14176283
2.34	0	58.465828
2.35	0	58.78742452
2.36	0	59.106582
2.37	0	59.42336347
2.38	0	59.73785942
2.39	0	60.05018062
2.4	0	60.3604501
2.41	0	60.66879472
2.42	0	60.97533671
2.43	0	61.2801856
2.44	0	61.58343096
2.45	0	61.88513613
2.46	0	62.18533346
2.47	0	62.48402103
2.48	0	62.78116113
2.49	0	63.07668047
2.5	0	63.37047206
2.51	0	63.66239874
2.52	0	63.95229803
2.53	0	64.23998816
2.54	0	64.52527487
2.55	0	64.80795881
2.56	0	65.08784291
2.57	0	65.3647397
2.58	0	65.63847796
2.59	0	65.90890854
2.6	0	66.17590905
2.61	0	66.43938725
2.62	0	66.69928296
2.63	0	66.95556847
2.64	0	67.20824739
2.65	0	67.45735221
2.66	0	67.70294045
2.67	0	67.94508985
2.68	0	68.18389274
2.69	0	68.41944988
2.7	0	68.65186412
2.71	0	68.88123413
2.72	0	69.10764859
2.73	0	69.33118098
2.74	0	69.55188528
2.75	0	69.76979279
2.76	0	69.98491009
2.77	0	70.19721829
2.78	0	70.40667355
2.79	0	70.61320885
2.8	0	70.81673674
2.81	0	71.01715319
2.82	0	71.21433634
2.83	0	71.40804565
2.84	0	71.5979452
2.85	0	71.78372877
2.86	0	71.96523338
2.87	0	72.14248285
2.88	0	72.31558618
2.89	0	72.48468938
2.9	0	72.64995625
2.91	0	72.811557
2.92	0	72.96965935
2.93	0	73.12442068
2.94	0	73.27598119
2.95	0	73.42445823
2.96	0	73.56994195
2.97	0	73.71249243
2.98	0	73.85213842
2.99	0	73.98887763
3	0	74.12267856
3.01	0	74.25348363
3.02	0	74.3812136
3.03	0	74.50577284
3.04	0	74.62705528
3.05	0	74.74495072
3.06	0	74.85935119
3.07	0	74.97015707
3.08	0	75.0772826
3.09	0	75.18066078
3.1	0	75.2802471
3.11	0	75.37602235
3.12	0	75.46799404
3.13	0	75.55619677
3.14	0	75.64069124
3.15	0	75.72156228
3.16	0	75.79891585
3.17	0	75.87287526
3.18	0	75.94357687
3.19	0	76.01116538
3.2	0	76.07578908
3.21	0	76.13759518
3.22	0	76.19672557
3.23	0	76.25331298
3.24	0	76.30747799
3.25	0	76.35932672
3.26	0	76.40894945
3.27	0	76.45642015
3.28	0	76.50179685
3.29	0	76.54512285
3.3	0	76.58642869
3.31	0	76.62573467
3.32	0	76.66305388
3.33	0	76.69839546
3.34	0	76.73176805
3.35	0	76.76318316
3.36	0	76.79265839
3.37	0	76.82022029
3.38	0	76.84590672
3.39	0	76.86976882
3.4	0	76.8918722
3.41	0	76.91229764
3.42	0	76.93114112
3.43	0	76.94851321
3.44	0	76.96453799
3.45	0	76.97935151
3.46	0	76.99309984
3.47	0	77.00593695
3.48	0	77.01802236
3.49	0	77.02951891
3.5	0	77.04059047
3.51	0	77.05139996
3.52	0	77.06210667
3.53	0	77.07285929
3.54	0	77.0837852
3.55	0	77.09498043
3.56	0	77.10650151
3.57	0	77.11835981
3.58	0	77.13051816
3.59	0	77.14289012
3.6	0	77.15534148
3.61	0	77.16769404
3.62	0	77.17973125
3.63	0	77.19120545
3.64	0	77.20184621
3.65	0	77.21136942
3.66	0	77.21948667
3.67	0	77.22591445
3.68	0	77.2303828
3.69	0	77.23264297
3.7	0	77.23247385
3.71	0	77.22968779
3.72	0	77.22414911
3.73	0	77.21579063
3.74	0	77.2045999
3.75	0	77.19060158
3.76	0	77.17384354
3.77	0	77.15438552
3.78	0	77.13228974
3.79	0	77.10761329
3.8	0	77.08040199
3.81	0	77.05068593
3.82	0	77.01847624
3.83	0	76.98376342
3.84	0	76.94651673
3.85	0	76.90668485
3.86	0	76.86419739
3.87	0	76.81896729
3.88	0	76.77089379
3.89	0	76.71986582
3.9	0	76.66576567
3.91	0	76.6084727
3.92	0	76.54786694
3.93	0	76.48383248
3.94	0	76.41626048
3.95	0	76.34505171
3.96	0	76.27011863
3.97	0	76.19138683
3.98	0	76.108796
3.99	0	76.02230022
4	0	75.93186787
4.01	0	75.83748088
4.02	0	75.73913372
4.03	0	75.63683194
4.04	0	75.53059044
